<svg xmlns="http://www.w3.org/2000/svg" viewBox="0 0 100 100" fill="none" stroke="#12161c" stroke-width="5" stroke-linejoin="round" stroke-linecap="round">
  <path d="M12 48C12 26 29 12 50 12s38 14 38 36z" fill="#f2a93b"/>
  <g fill="#fff3d6" stroke="none"><ellipse cx="33" cy="29" rx="3.6" ry="2.2"/><ellipse cx="52" cy="23" rx="3.6" ry="2.2"/><ellipse cx="69" cy="31" rx="3.6" ry="2.2"/><ellipse cx="46" cy="38" rx="3.4" ry="2"/></g>
  <path d="M8 52q8 7 14 0t14 0 14 0 14 0 14 0 14 0v7H8z" fill="#5ccf6a" stroke-width="4"/>
  <path d="M16 59h68l-7 9-9-6-9 8-9-8-9 6z" fill="#ffd23f" stroke-width="3.5"/>
  <rect x="11" y="62" width="78" height="13" rx="6.5" fill="#7b4a2b"/>
  <path d="M15 75h70c0 11-6 16-17 16H32c-11 0-17-5-17-16z" fill="#f2a93b"/>
</svg>
