<svg xmlns="http://www.w3.org/2000/svg" viewBox="0 0 100 100" fill="none" stroke="#12161c" stroke-width="4.5" stroke-linejoin="round" stroke-linecap="round">
  <!-- corps de serpent (tube : contour noir puis vert, ventre clair) -->
  <path d="M10 94C8 76 30 80 34 62" stroke-width="25"/>
  <path d="M10 94C8 76 30 80 34 62" stroke="#2fbf72" stroke-width="17"/>
  <path d="M10 94C8 76 30 80 34 62" stroke="#c8f0a0" stroke-width="5"/>
  <!-- bois (cornes) -->
  <path d="M42 36L33 11l9 5 3-9 8 25z" fill="#f4c542"/>
  <path d="M30 44L16 30l11-1-8-9 18 12z" fill="#f4c542"/>
  <!-- tête allongée -->
  <path d="M28 54c-2-14 8-24 22-24l30 9c11 3 14 11 8 16l-26 7c-10 8-30 10-34-8z" fill="#2fbf72"/>
  <!-- mâchoire claire -->
  <path d="M46 62l36-9c3 5-2 11-12 13-9 2-17 1-24-4z" fill="#c8f0a0" stroke-width="3.5"/>
  <!-- moustache -->
  <path d="M90 47c9 3 8 14 2 20" stroke-width="3.5"/>
  <path d="M86 52c6 4 5 11 1 15" stroke-width="3"/>
  <!-- narine, dent, œil rouge -->
  <circle cx="86" cy="45" r="2.3" fill="#12161c" stroke="none"/>
  <path d="M70 58l2-6 3 6" fill="#ffffff" stroke-width="2.8"/>
  <ellipse cx="55" cy="44" rx="8" ry="6.5" fill="#e63946" transform="rotate(-12 55 44)"/>
  <ellipse cx="56" cy="44" rx="2" ry="5" fill="#12161c" stroke="none" transform="rotate(-12 56 44)"/>
  <!-- crête rouge sur la nuque -->
  <path d="M30 56l-9 2 6-7zM32 66l-9 4 7-9z" fill="#e63946" stroke-width="3.2"/>
</svg>
