<svg xmlns="http://www.w3.org/2000/svg" viewBox="0 0 512 512" width="512" height="512">
  <defs>
    <linearGradient id="bg" x1="0" y1="0" x2="1" y2="1">
      <stop offset="0" stop-color="#5cc8ff"/>
      <stop offset="0.5" stop-color="#2f7bff"/>
      <stop offset="1" stop-color="#3a1fb8"/>
    </linearGradient>
    <linearGradient id="q" x1="0" y1="0" x2="1" y2="1">
      <stop offset="0" stop-color="#2f7bff"/>
      <stop offset="1" stop-color="#6a3cff"/>
    </linearGradient>
  </defs>
  <rect width="512" height="512" fill="url(#bg)"/>
  <!-- Bulle de dialogue -->
  <path d="M256 92c-96 0-168 66-168 150 0 44 20 83 53 110l-17 62c-2 8 7 14 14 9l66-44c16 4 34 7 52 7 96 0 168-66 168-150S352 92 256 92z" fill="#ffffff"/>
  <!-- Point d'interrogation -->
  <path d="M206 205c0-30 23-52 52-52s52 20 52 47c0 23-14 34-30 44-16 10-24 20-24 40v10" fill="none" stroke="url(#q)" stroke-width="38" stroke-linecap="round" stroke-linejoin="round"/>
  <circle cx="256" cy="345" r="23" fill="url(#q)"/>
</svg>
