<svg xmlns="http://www.w3.org/2000/svg" viewBox="0 0 100 100" fill="none" stroke="#12161c" stroke-width="5" stroke-linejoin="round" stroke-linecap="round">
  <path d="M25 36L14 7l26 13z" fill="#ffd23f"/>
  <path d="M75 36L86 7 60 20z" fill="#ffd23f"/>
  <path d="M15 54l-9-7 1 17z" fill="#2fb97a" stroke-width="4"/>
  <path d="M85 54l9-7-1 17z" fill="#2fb97a" stroke-width="4"/>
  <path d="M13 56c0-23 16-39 37-39s37 16 37 39c0 19-15 31-37 31S13 75 13 56z" fill="#3ecf8e"/>
  <ellipse cx="50" cy="69" rx="23" ry="15" fill="#9aeac5" stroke-width="4"/>
  <circle cx="42" cy="66" r="2.8" fill="#12161c" stroke="none"/>
  <circle cx="58" cy="66" r="2.8" fill="#12161c" stroke="none"/>
  <path d="M40 76q10 7 20 0" stroke-width="4"/>
  <circle cx="33" cy="47" r="9" fill="#ffffff"/>
  <circle cx="67" cy="47" r="9" fill="#ffffff"/>
  <circle cx="35.5" cy="48.5" r="4.2" fill="#12161c" stroke="none"/>
  <circle cx="64.5" cy="48.5" r="4.2" fill="#12161c" stroke="none"/>
</svg>
